<svg width="48" height="48" viewBox="0 0 48 48" fill="none" xmlns="http://www.w3.org/2000/svg">
<rect width="48" height="48" rx="16" fill="#F8FAFC"/>
<path d="M30 26V23H27V21H30V18H32V21H35V23H32V26H30ZM21 24C19.9 24 18.9583 23.6083 18.175 22.825C17.3917 22.0417 17 21.1 17 20C17 18.9 17.3917 17.9583 18.175 17.175C18.9583 16.3917 19.9 16 21 16C22.1 16 23.0417 16.3917 23.825 17.175C24.6083 17.9583 25 18.9 25 20C25 21.1 24.6083 22.0417 23.825 22.825C23.0417 23.6083 22.1 24 21 24ZM13 32V29.2C13 28.6333 13.1458 28.1125 13.4375 27.6375C13.7292 27.1625 14.1167 26.8 14.6 26.55C15.6333 26.0333 16.6833 25.6458 17.75 25.3875C18.8167 25.1292 19.9 25 21 25C22.1 25 23.1833 25.1292 24.25 25.3875C25.3167 25.6458 26.3667 26.0333 27.4 26.55C27.8833 26.8 28.2708 27.1625 28.5625 27.6375C28.8542 28.1125 29 28.6333 29 29.2V32H13ZM15 30H27V29.2C27 29.0167 26.9542 28.85 26.8625 28.7C26.7708 28.55 26.65 28.4333 26.5 28.35C25.6 27.9 24.6917 27.5625 23.775 27.3375C22.8583 27.1125 21.9333 27 21 27C20.0667 27 19.1417 27.1125 18.225 27.3375C17.3083 27.5625 16.4 27.9 15.5 28.35C15.35 28.4333 15.2292 28.55 15.1375 28.7C15.0458 28.85 15 29.0167 15 29.2V30ZM21 22C21.55 22 22.0208 21.8042 22.4125 21.4125C22.8042 21.0208 23 20.55 23 20C23 19.45 22.8042 18.9792 22.4125 18.5875C22.0208 18.1958 21.55 18 21 18C20.45 18 19.9792 18.1958 19.5875 18.5875C19.1958 18.9792 19 19.45 19 20C19 20.55 19.1958 21.0208 19.5875 21.4125C19.9792 21.8042 20.45 22 21 22Z" fill="#515F74"/>
</svg>
